<svg height='100px' width='100px'  fill="#000000" xmlns="http://www.w3.org/2000/svg" xmlns:xlink="http://www.w3.org/1999/xlink" version="1.1" x="0px" y="0px" viewBox="0 0 98 98" style="enable-background:new 0 0 98 98;" xml:space="preserve"><circle cx="32" cy="31.7" r="2.3"></circle><path d="M88.7,79.5l-9.6-5.4c-0.5-0.3-1.2-0.3-1.8,0c-0.5,0.3-0.9,0.9-0.9,1.5v3.7c-1.6-0.1-4.5-0.3-9.6-1  c-8.7-1.2-14.5-11.2-15.7-26.9l12.4,7.9c0.3,0.2,0.6,0.3,1,0.3c0.4,0,0.7-0.1,1-0.3c0.6-0.4,0.9-1.2,0.7-1.9c0-0.1-1.4-6,1.5-7.6  c2.9-1.6,6.4,2.2,6.4,2.2c0.6,0.7,1.6,0.8,2.4,0.2c0.7-0.5,1-1.5,0.5-2.3c0,0-1.3-2.5-0.3-5.2c0.4-1.1,1-1.8,1.9-2.2  c2.1-1,5.3,0,6.4,0.4c0.9,0.3,1.9,0,2.3-0.9c0.4-0.8,0.1-1.8-0.7-2.3C85,38.7,69.4,29.3,64.5,28.2c-5.5-1.2-11,2.4-15.3,6.4  c-1.6-4-4.2-7.2-7.6-9.3c0-0.1,0.1-0.2,0.1-0.3l0-14.8c0-0.8-0.5-1.5-1.3-1.7c-0.8-0.2-1.6,0.1-2,0.8l-8.2,13.3l-10.3-0.3  c-4,0.3-11.5,3.1-11.5,11.3c0,4.3,2.7,8.2,7.9,11.3c0,0,2.8,1.6,5.3,2.5c-2.9,5.8-6.4,13.6-5.1,18.9c1.7,7.2,5.7,12,10.7,13.1  c0.2,0.2,0.3,0.4,0.5,0.6c0,0,0,0,0,0c-0.4,0.1-0.8,0.2-1.2,0.2l-1.7,0.3c-0.6,0.1-1.2,0.2-1.7,0.2c-2,0.2-5.5,0.5-5.5,4.9  c0,3.6,3.2,3.7,4.9,3.8c0.5,0,1.1,0,1.7,0.1c2.1,0.3,4.5,0.3,6.2,0.3c1.2,0,2.1,0,2.5,0l1.4,0c3.9-0.1,9-0.3,10.1-4.9l32-1.6v3.4  c0,0.6,0.3,1.2,0.9,1.5c0.3,0.2,0.6,0.2,0.9,0.2c0.3,0,0.6-0.1,0.9-0.2l9.6-5.4c0.6-0.3,0.9-0.9,0.9-1.6  C89.6,80.4,89.2,79.8,88.7,79.5z M63.8,31.7c2.4,0.5,9.1,4.1,14.5,7.3c-0.3,0.1-0.7,0.2-1,0.4c-1.8,0.8-3.1,2.3-3.8,4.2  c-0.4,1.1-0.6,2.2-0.6,3.2c-1.9-0.9-4.3-1.3-6.8,0c-3,1.7-3.7,5-3.7,7.7L45.8,43.9C49.5,38.9,57.4,30.3,63.8,31.7z M38.2,16.4l0,6.6  l-3.9-0.4L38.2,16.4z M44.8,81.1c0.1-2.6,0.2-3.3,0.2-3.3c0,0,0,0,0,0c0.3-0.9-0.2-1.9-1.1-2.2c-0.9-0.3-2,0.2-2.3,1.1  c-0.1,0.2-0.3,0.8-0.4,6.2c-0.1,2.6-1.6,3-6.9,3.1l-1.4,0c-1.1,0-4.9,0.1-8.2-0.3c-0.7-0.1-1.3-0.1-2-0.1c-0.6,0-1.4-0.1-1.4-0.2  c0-1,0-1.1,2.2-1.3c0.7-0.1,1.4-0.1,2.1-0.3l1.6-0.3c2.4-0.4,3.7-0.7,4.4-1.6c1.2-1.5-0.1-3-1.2-4.4c-1.9-2.3-3.4-4.4-2.3-6.7  c0.6-1.3,1.3-2,2.4-2.4c1.9-0.7,4.4,0.3,5.2,0.7c0.9,0.5,2,0.1,2.4-0.7c0.5-0.9,0.1-2-0.7-2.4c-0.2-0.1-4.3-2.2-8.1-0.9  c-2,0.7-3.5,2.1-4.5,4.3c-0.7,1.6-0.8,3.1-0.5,4.4c-2.7-2.6-4-6.8-4.3-8.4c-0.8-3.3,1-9.1,5.3-17.3c0.7-1.3,1.2-2.2,0.2-3.2  c-0.3-0.3-0.8-0.5-1.2-0.5c-0.7-0.2-3.5-1.1-6.3-2.8c0.2,0,0.4,0,0.6,0c4.2,0,8.1-1.1,8.8-1.4c0.9-0.3,1.5-1.3,1.2-2.2  c-0.3-0.9-1.3-1.5-2.2-1.2c-2.7,0.8-11,2.4-13.8-0.6c-0.4-0.9-0.6-1.8-0.6-2.7c0-7,7.8-7.7,8-7.7l13,0.4l0.3,0  c6,0.3,11.3,4.7,13.3,11c0,0.1,0.1,0.2,0.1,0.3c-2.8,3.1-4.6,5.7-4.7,6c-0.3,0.4-0.4,0.9-0.3,1.4c0.1,0.5,0.4,0.9,0.8,1.1l5.1,3.3  c0.7,15.8,5.6,26.9,13.5,31.1L44.8,81.1z M80,83.4v-4.6l4.1,2.3L80,83.4z"></path><path d="M34.9,54C34.9,54,34.9,54,34.9,54c-0.2,0-4,0.1-6.7,0.8c-4.6,1.3-5.5,7.4-5.6,8.1c-0.1,1,0.6,1.9,1.5,2c0.1,0,0.2,0,0.2,0  c0.9,0,1.6-0.7,1.8-1.6c0.1-0.9,1-4.6,3-5.1c2.3-0.6,5.7-0.7,5.8-0.7c1,0,1.8-0.8,1.8-1.8C36.7,54.7,35.9,54,34.9,54z"></path></svg>